# This file uses meters as units for non-parametric coordinates.

g default
v -599.547363 500.000000 497.205872
v -519.223267 799.773682 497.205872
v -299.773682 1019.223267 497.205872
v 0.000000 1099.547363 497.205872
v 299.773682 1019.223267 497.205872
v 519.223267 799.773682 497.205872
v 599.547363 500.000000 497.205872
v -599.547363 500.000000 -497.205872
v -519.223267 799.773682 -497.205872
v -299.773682 1019.223267 -497.205872
v 0.000000 1099.547363 -497.205872
v 299.773682 1019.223267 -497.205872
v 519.223267 799.773682 -497.205872
v 599.547363 500.000000 -497.205872
v 0.000000 500.000000 497.205872
v 0.000000 500.000000 -497.205872
v -563.876099 470.000000 450.645691
v -488.331024 747.117615 450.645691
v -281.938049 949.981812 450.645691
v 0.000000 1024.235229 450.645691
v 281.938049 949.981812 450.645691
v 488.331024 747.117615 450.645691
v 563.876099 470.000000 450.645691
v -563.876099 470.000000 -450.645691
v -488.331024 747.117615 -450.645691
v -281.938049 949.981812 -450.645691
v 0.000000 1024.235229 -450.645691
v 281.938049 949.981812 -450.645691
v 488.331024 747.117615 -450.645691
v 563.876099 470.000000 -450.645691
v 0.000000 470.000000 450.645691
v 0.000000 470.000000 -450.645691
vt 0.343750 0.156250
vt 0.364684 0.234375
vt 0.421875 0.291566
vt 0.500000 0.312500
vt 0.578125 0.291566
vt 0.635316 0.234375
vt 0.656250 0.156250
vt 0.479167 0.312500
vt 0.500000 0.312500
vt 0.520833 0.312500
vt 0.541667 0.312500
vt 0.562500 0.312500
vt 0.583333 0.312500
vt 0.604167 0.312500
vt 0.479167 0.688440
vt 0.500000 0.688440
vt 0.520833 0.688440
vt 0.541667 0.688440
vt 0.562500 0.688440
vt 0.583333 0.688440
vt 0.604167 0.688440
vt 0.635316 0.765625
vt 0.578125 0.708434
vt 0.500000 0.687500
vt 0.421875 0.708434
vt 0.364684 0.765625
vt 0.343750 0.843750
vt 0.656250 0.843750
vt 0.500000 0.150000
vt 0.500000 0.837500
vt 0.479167 0.312500
vt 0.479167 0.688440
vt 0.500000 0.688440
vt 0.500000 0.312500
vt 0.520833 0.688440
vt 0.520833 0.312500
vt 0.541667 0.688440
vt 0.541667 0.312500
vt 0.562500 0.688440
vt 0.562500 0.312500
vt 0.583333 0.688440
vt 0.583333 0.312500
vt 0.604167 0.688440
vt 0.604167 0.312500
vt 0.364684 0.234375
vt 0.500000 0.150000
vt 0.343750 0.156250
vt 0.421875 0.291566
vt 0.500000 0.312500
vt 0.578125 0.291566
vt 0.635316 0.234375
vt 0.656250 0.156250
vt 0.343750 0.843750
vt 0.500000 0.837500
vt 0.364684 0.765625
vt 0.421875 0.708434
vt 0.500000 0.687500
vt 0.578125 0.708434
vt 0.635316 0.765625
vt 0.656250 0.843750
vn -0.965926 0.258819 0.000000
vn -0.965926 0.258819 0.000000
vn -0.965926 0.258819 0.000000
vn -0.965926 0.258819 0.000000
vn -0.707107 0.707107 0.000000
vn -0.707107 0.707107 0.000000
vn -0.707107 0.707107 0.000000
vn -0.707107 0.707107 0.000000
vn -0.258819 0.965926 0.000000
vn -0.258819 0.965926 0.000000
vn -0.258819 0.965926 0.000000
vn -0.258819 0.965926 0.000000
vn 0.258819 0.965926 0.000000
vn 0.258819 0.965926 0.000000
vn 0.258819 0.965926 0.000000
vn 0.258819 0.965926 0.000000
vn 0.707107 0.707107 0.000000
vn 0.707107 0.707107 0.000000
vn 0.707107 0.707107 0.000000
vn 0.707107 0.707107 0.000000
vn 0.965926 0.258819 0.000000
vn 0.965926 0.258819 0.000000
vn 0.965926 0.258819 0.000000
vn 0.965926 0.258819 0.000000
vn 0.000000 0.000000 1.000000
vn 0.000000 0.000000 1.000000
vn 0.000000 0.000000 1.000000
vn 0.000000 0.000000 1.000000
vn 0.000000 0.000000 1.000000
vn 0.000000 0.000000 1.000000
vn 0.000000 0.000000 1.000000
vn 0.000000 0.000000 1.000000
vn 0.000000 0.000000 -1.000000
vn 0.000000 0.000000 -1.000000
vn 0.000000 0.000000 -1.000000
vn 0.000000 0.000000 -1.000000
vn 0.000000 0.000000 -1.000000
vn 0.000000 0.000000 -1.000000
vn 0.000000 0.000000 -1.000000
vn 0.000000 0.000000 -1.000000
vn 0.964793 -0.263012 0.000000
vn 0.964793 -0.263012 0.000000
vn 0.964793 -0.263012 0.000000
vn 0.964793 -0.263012 0.000000
vn 0.700984 -0.713177 0.000000
vn 0.700984 -0.713177 0.000000
vn 0.700984 -0.713177 0.000000
vn 0.700984 -0.713177 0.000000
vn 0.254683 -0.967025 0.000000
vn 0.254683 -0.967025 0.000000
vn 0.254683 -0.967025 0.000000
vn 0.254683 -0.967025 0.000000
vn -0.254683 -0.967025 0.000000
vn -0.254683 -0.967025 0.000000
vn -0.254683 -0.967025 0.000000
vn -0.254683 -0.967025 0.000000
vn -0.700984 -0.713177 0.000000
vn -0.700984 -0.713177 0.000000
vn -0.700984 -0.713177 0.000000
vn -0.700984 -0.713177 0.000000
vn -0.964793 -0.263012 0.000000
vn -0.964793 -0.263012 0.000000
vn -0.964793 -0.263012 0.000000
vn -0.964793 -0.263012 0.000000
vn 0.000000 0.000000 -1.000000
vn 0.000000 0.000000 -1.000000
vn 0.000000 0.000000 -1.000000
vn 0.000000 0.000000 -1.000000
vn 0.000000 0.000000 -1.000000
vn 0.000000 0.000000 -1.000000
vn 0.000000 0.000000 -1.000000
vn 0.000000 0.000000 -1.000000
vn 0.000000 0.000000 1.000000
vn 0.000000 0.000000 1.000000
vn 0.000000 0.000000 1.000000
vn 0.000000 0.000000 1.000000
vn 0.000000 0.000000 1.000000
vn 0.000000 0.000000 1.000000
vn 0.000000 0.000000 1.000000
vn 0.000000 0.000000 1.000000
s off
g SM_celing_roof
f 1/8/1 2/9/2 9/16/3 8/15/4
f 2/9/5 3/10/6 10/17/7 9/16/8
f 3/10/9 4/11/10 11/18/11 10/17/12
f 4/11/13 5/12/14 12/19/15 11/18/16
f 5/12/17 6/13/18 13/20/19 12/19/20
f 6/13/21 7/14/22 14/21/23 13/20/24
s 1
f 2/2/25 1/1/26 15/29/27
f 3/3/28 2/2/25 15/29/27
f 4/4/29 3/3/28 15/29/27
f 5/5/30 4/4/29 15/29/27
f 6/6/31 5/5/30 15/29/27
f 7/7/32 6/6/31 15/29/27
s 2
f 8/27/33 9/26/34 16/30/35
f 9/26/34 10/25/36 16/30/35
f 10/25/36 11/24/37 16/30/35
f 11/24/37 12/23/38 16/30/35
f 12/23/38 13/22/39 16/30/35
f 13/22/39 14/28/40 16/30/35
s off
f 17/31/41 24/32/42 25/33/43 18/34/44
f 18/34/45 25/33/46 26/35/47 19/36/48
f 19/36/49 26/35/50 27/37/51 20/38/52
f 20/38/53 27/37/54 28/39/55 21/40/56
f 21/40/57 28/39/58 29/41/59 22/42/60
f 22/42/61 29/41/62 30/43/63 23/44/64
s 3
f 18/45/65 31/46/66 17/47/67
f 19/48/68 31/46/66 18/45/65
f 20/49/69 31/46/66 19/48/68
f 21/50/70 31/46/66 20/49/69
f 22/51/71 31/46/66 21/50/70
f 23/52/72 31/46/66 22/51/71
s 4
f 24/53/73 32/54/74 25/55/75
f 25/55/75 32/54/74 26/56/76
f 26/56/76 32/54/74 27/57/77
f 27/57/77 32/54/74 28/58/78
f 28/58/78 32/54/74 29/59/79
f 29/59/79 32/54/74 30/60/80
g default
v 550.000000 0.000000 500.000000
v 600.000000 0.000000 500.000000
v 550.000000 500.000000 500.000000
v 600.000000 500.000000 500.000000
v 550.000000 500.000000 -500.000000
v 600.000000 500.000000 -500.000000
v 550.000000 0.000000 -500.000000
v 600.000000 0.000000 -500.000000
vt 0.375000 0.000000
vt 0.625000 0.000000
vt 0.375000 0.250000
vt 0.625000 0.250000
vt 0.375000 0.500000
vt 0.625000 0.500000
vt 0.375000 0.750000
vt 0.625000 0.750000
vt 0.375000 1.000000
vt 0.625000 1.000000
vt 0.875000 0.000000
vt 0.875000 0.250000
vt 0.125000 0.000000
vt 0.125000 0.250000
vn 0.000000 0.000000 1.000000
vn 0.000000 0.000000 1.000000
vn 0.000000 0.000000 1.000000
vn 0.000000 0.000000 1.000000
vn 0.000000 1.000000 0.000000
vn 0.000000 1.000000 0.000000
vn 0.000000 1.000000 0.000000
vn 0.000000 1.000000 0.000000
vn 0.000000 0.000000 -1.000000
vn 0.000000 0.000000 -1.000000
vn 0.000000 0.000000 -1.000000
vn 0.000000 0.000000 -1.000000
vn 0.000000 -1.000000 0.000000
vn 0.000000 -1.000000 0.000000
vn 0.000000 -1.000000 0.000000
vn 0.000000 -1.000000 0.000000
vn 1.000000 0.000000 0.000000
vn 1.000000 0.000000 0.000000
vn 1.000000 0.000000 0.000000
vn 1.000000 0.000000 0.000000
vn -1.000000 0.000000 0.000000
vn -1.000000 0.000000 0.000000
vn -1.000000 0.000000 0.000000
vn -1.000000 0.000000 0.000000
s off
g SM_wall_1
f 33/61/81 34/62/82 36/64/83 35/63/84
f 35/63/85 36/64/86 38/66/87 37/65/88
f 37/65/89 38/66/90 40/68/91 39/67/92
f 39/67/93 40/68/94 34/70/95 33/69/96
f 34/62/97 40/71/98 38/72/99 36/64/100
f 39/73/101 33/61/102 35/63/103 37/74/104
g default
v -600.000000 0.000000 450.000000
v -600.000000 0.000000 500.000000
v -600.000000 500.000000 450.000000
v -600.000000 500.000000 500.000000
v 600.000000 500.000000 450.000000
v 600.000000 500.000000 500.000000
v 600.000000 0.000000 450.000000
v 600.000000 0.000000 500.000000
vt 0.375000 0.000000
vt 0.625000 0.000000
vt 0.375000 0.250000
vt 0.625000 0.250000
vt 0.375000 0.500000
vt 0.625000 0.500000
vt 0.375000 0.750000
vt 0.625000 0.750000
vt 0.375000 1.000000
vt 0.625000 1.000000
vt 0.875000 0.000000
vt 0.875000 0.250000
vt 0.125000 0.000000
vt 0.125000 0.250000
vn -1.000000 0.000000 0.000000
vn -1.000000 0.000000 0.000000
vn -1.000000 0.000000 0.000000
vn -1.000000 0.000000 0.000000
vn 0.000000 1.000000 0.000000
vn 0.000000 1.000000 0.000000
vn 0.000000 1.000000 0.000000
vn 0.000000 1.000000 0.000000
vn 1.000000 0.000000 -0.000000
vn 1.000000 0.000000 -0.000000
vn 1.000000 0.000000 -0.000000
vn 1.000000 0.000000 -0.000000
vn 0.000000 -1.000000 0.000000
vn 0.000000 -1.000000 0.000000
vn 0.000000 -1.000000 0.000000
vn 0.000000 -1.000000 0.000000
vn 0.000000 0.000000 1.000000
vn 0.000000 0.000000 1.000000
vn 0.000000 0.000000 1.000000
vn 0.000000 0.000000 1.000000
vn -0.000000 0.000000 -1.000000
vn -0.000000 0.000000 -1.000000
vn -0.000000 0.000000 -1.000000
vn -0.000000 0.000000 -1.000000
s off
g SM_wall_2
f 41/75/105 42/76/106 44/78/107 43/77/108
f 43/77/109 44/78/110 46/80/111 45/79/112
f 45/79/113 46/80/114 48/82/115 47/81/116
f 47/81/117 48/82/118 42/84/119 41/83/120
f 42/76/121 48/85/122 46/86/123 44/78/124
f 47/87/125 41/75/126 43/77/127 45/88/128
g default
v -600.000000 0.000000 500.000000
v -550.000000 0.000000 500.000000
v -600.000000 500.000000 500.000000
v -550.000000 500.000000 500.000000
v -600.000000 500.000000 -500.000000
v -550.000000 500.000000 -500.000000
v -600.000000 0.000000 -500.000000
v -550.000000 0.000000 -500.000000
vt 0.375000 0.000000
vt 0.625000 0.000000
vt 0.375000 0.250000
vt 0.625000 0.250000
vt 0.375000 0.500000
vt 0.625000 0.500000
vt 0.375000 0.750000
vt 0.625000 0.750000
vt 0.375000 1.000000
vt 0.625000 1.000000
vt 0.875000 0.000000
vt 0.875000 0.250000
vt 0.125000 0.000000
vt 0.125000 0.250000
vn 0.000000 0.000000 1.000000
vn 0.000000 0.000000 1.000000
vn 0.000000 0.000000 1.000000
vn 0.000000 0.000000 1.000000
vn 0.000000 1.000000 0.000000
vn 0.000000 1.000000 0.000000
vn 0.000000 1.000000 0.000000
vn 0.000000 1.000000 0.000000
vn 0.000000 0.000000 -1.000000
vn 0.000000 0.000000 -1.000000
vn 0.000000 0.000000 -1.000000
vn 0.000000 0.000000 -1.000000
vn 0.000000 -1.000000 0.000000
vn 0.000000 -1.000000 0.000000
vn 0.000000 -1.000000 0.000000
vn 0.000000 -1.000000 0.000000
vn 1.000000 0.000000 0.000000
vn 1.000000 0.000000 0.000000
vn 1.000000 0.000000 0.000000
vn 1.000000 0.000000 0.000000
vn -1.000000 0.000000 0.000000
vn -1.000000 0.000000 0.000000
vn -1.000000 0.000000 0.000000
vn -1.000000 0.000000 0.000000
s off
g SM_wall_3
f 49/89/129 50/90/130 52/92/131 51/91/132
f 51/91/133 52/92/134 54/94/135 53/93/136
f 53/93/137 54/94/138 56/96/139 55/95/140
f 55/95/141 56/96/142 50/98/143 49/97/144
f 50/90/145 56/99/146 54/100/147 52/92/148
f 55/101/149 49/89/150 51/91/151 53/102/152
g default
v -600.000000 0.000000 -500.000000
v -600.000000 0.000000 -450.000000
v -600.000000 500.000000 -500.000000
v -600.000000 500.000000 -450.000000
v 600.000000 500.000000 -500.000000
v 600.000000 500.000000 -450.000000
v 600.000000 0.000000 -500.000000
v 600.000000 0.000000 -450.000000
vt 0.375000 0.000000
vt 0.625000 0.000000
vt 0.375000 0.250000
vt 0.625000 0.250000
vt 0.375000 0.500000
vt 0.625000 0.500000
vt 0.375000 0.750000
vt 0.625000 0.750000
vt 0.375000 1.000000
vt 0.625000 1.000000
vt 0.875000 0.000000
vt 0.875000 0.250000
vt 0.125000 0.000000
vt 0.125000 0.250000
vn -1.000000 0.000000 0.000000
vn -1.000000 0.000000 0.000000
vn -1.000000 0.000000 0.000000
vn -1.000000 0.000000 0.000000
vn 0.000000 1.000000 0.000000
vn 0.000000 1.000000 0.000000
vn 0.000000 1.000000 0.000000
vn 0.000000 1.000000 0.000000
vn 1.000000 0.000000 -0.000000
vn 1.000000 0.000000 -0.000000
vn 1.000000 0.000000 -0.000000
vn 1.000000 0.000000 -0.000000
vn 0.000000 -1.000000 0.000000
vn 0.000000 -1.000000 0.000000
vn 0.000000 -1.000000 0.000000
vn 0.000000 -1.000000 0.000000
vn 0.000000 0.000000 1.000000
vn 0.000000 0.000000 1.000000
vn 0.000000 0.000000 1.000000
vn 0.000000 0.000000 1.000000
vn -0.000000 0.000000 -1.000000
vn -0.000000 0.000000 -1.000000
vn -0.000000 0.000000 -1.000000
vn -0.000000 0.000000 -1.000000
s off
g SM_wall_4
f 57/103/153 58/104/154 60/106/155 59/105/156
f 59/105/157 60/106/158 62/108/159 61/107/160
f 61/107/161 62/108/162 64/110/163 63/109/164
f 63/109/165 64/110/166 58/112/167 57/111/168
f 58/104/169 64/113/170 62/114/171 60/106/172
f 63/115/173 57/103/174 59/105/175 61/116/176
g default
v -600.000000 -25.000000 500.000000
v 600.000000 -25.000000 500.000000
v -600.000000 0.000000 500.000000
v 600.000000 0.000000 500.000000
v -600.000000 0.000000 -504.460385
v 600.000000 0.000000 -504.460385
v -600.000000 -25.000000 -504.460385
v 600.000000 -25.000000 -504.460385
vt 0.375000 0.000000
vt 0.625000 0.000000
vt 0.375000 0.250000
vt 0.625000 0.250000
vt 0.375000 0.500000
vt 0.625000 0.500000
vt 0.375000 0.750000
vt 0.625000 0.750000
vt 0.375000 1.000000
vt 0.625000 1.000000
vt 0.875000 0.000000
vt 0.875000 0.250000
vt 0.125000 0.000000
vt 0.125000 0.250000
vn 0.000000 0.000000 1.000000
vn 0.000000 0.000000 1.000000
vn 0.000000 0.000000 1.000000
vn 0.000000 0.000000 1.000000
vn 0.000000 1.000000 0.000000
vn 0.000000 1.000000 0.000000
vn 0.000000 1.000000 0.000000
vn 0.000000 1.000000 0.000000
vn 0.000000 0.000000 -1.000000
vn 0.000000 0.000000 -1.000000
vn 0.000000 0.000000 -1.000000
vn 0.000000 0.000000 -1.000000
vn 0.000000 -1.000000 0.000000
vn 0.000000 -1.000000 0.000000
vn 0.000000 -1.000000 0.000000
vn 0.000000 -1.000000 0.000000
vn 1.000000 0.000000 0.000000
vn 1.000000 0.000000 0.000000
vn 1.000000 0.000000 0.000000
vn 1.000000 0.000000 0.000000
vn -1.000000 0.000000 0.000000
vn -1.000000 0.000000 0.000000
vn -1.000000 0.000000 0.000000
vn -1.000000 0.000000 0.000000
s off
g SM_floor
f 65/117/177 66/118/178 68/120/179 67/119/180
f 67/119/181 68/120/182 70/122/183 69/121/184
f 69/121/185 70/122/186 72/124/187 71/123/188
f 71/123/189 72/124/190 66/126/191 65/125/192
f 66/118/193 72/127/194 70/128/195 68/120/196
f 71/129/197 65/117/198 67/119/199 69/130/200
